# xmcd
#
# Track frame offsets: 
#        150
#        29271
#        57753
#        90423
#        107732
#        123600
#        148386
#        161928
#        187962
#        220281
#        250094
#        268020
#
# Disc length: 3875 seconds
#
# Revision: 0
# Processed by: cddbd v1.5.2PL0 Copyright (c) Steve Scherf et al.
# Submitted via: ExactAudioCopy v0.95b4
#
DISCID=b00f210c
DTITLE=David Munyon - Song for Danko
DYEAR=2006
DGENRE=Folk
TTITLE0=Frozen Dreams
TTITLE1=Keep It Rockin'
TTITLE2=I Will Find You
TTITLE3=Song For Danko
TTITLE4=Hare Krishna Blues
TTITLE5=Vina's Boy (Song for James Cook)
TTITLE6=Buy Me A Ticket To London
TTITLE7=Broken Robot
TTITLE8=Sailors Song Number 327
TTITLE9=When You Know
TTITLE10=I Am This Old Guitar
TTITLE11=World Love With Roy Bowden
EXTD=
EXTT0=
EXTT1=
EXTT2=
EXTT3=
EXTT4=
EXTT5=
EXTT6=
EXTT7=
EXTT8=
EXTT9=
EXTT10=
EXTT11=
PLAYORDER=
